<svg width="174" height="57" viewBox="0 0 174 57" fill="none" xmlns="http://www.w3.org/2000/svg">
<path d="M8.33191 15.5838H15.8268V10.3639H8.33191V5.90322H18.3759V0.360596H1.36963V25.3593H8.33191V15.5838Z" fill="#544AE3"/>
<path d="M38.1786 19.8167H29.0096V15.2991H37.1133V10.0412H29.0096V5.90322H38.1786V0.360596H22.0474V25.3593H38.1786V19.8167Z" fill="#544AE3"/>
<path d="M49.6108 21.1834H58.4944L59.883 25.3404H67.2448L58.1139 0.455505H50.0864L40.8984 25.3593H48.2222L49.6108 21.1834ZM54.0621 7.85832L56.7443 15.9824H51.3419L54.0621 7.85832Z" fill="#544AE3"/>
<path d="M77.1937 16.1533H77.8976L82.9576 25.3593H90.6237L84.936 15.6597C86.7431 15.1472 88.1508 14.2361 89.1019 12.9644C90.0721 11.6736 90.5476 10.1741 90.5476 8.42776C90.5476 6.89026 90.1862 5.52358 89.4824 4.28978C88.7785 3.07496 87.7133 2.1069 86.3246 1.40458C84.936 0.721246 83.2239 0.360596 81.2265 0.360596H70.2314V25.3403H77.1937V16.1533ZM77.1937 6.2259H80.6178C81.588 6.2259 82.3108 6.45368 82.7864 6.92822C83.262 7.40276 83.5093 8.04813 83.5093 8.86434C83.5093 10.6106 82.5391 11.4838 80.6178 11.4838H77.1937V6.2259Z" fill="#544AE3"/>
<path d="M109.552 20.1014H101.733V0.360596H94.771V25.3593H109.552V20.1014Z" fill="#544AE3"/>
<path d="M128.973 19.8167H119.805V15.2991H127.908V10.0412H119.805V5.90322H128.973V0.360596H112.842V25.3593H128.973V19.8167Z" fill="#544AE3"/>
<path d="M148.319 11.7686C147.273 11.2371 145.98 10.6676 144.401 10.1172C142.955 9.62365 141.909 9.1681 141.243 8.76948C140.577 8.37087 140.235 7.82041 140.235 7.11809C140.235 6.54864 140.387 6.13105 140.691 5.84632C140.996 5.5616 141.414 5.42873 141.966 5.42873C142.593 5.42873 143.107 5.61854 143.507 5.99817C143.887 6.37781 144.134 6.94725 144.229 7.7255H151.686C151.515 5.27688 150.583 3.37872 148.871 2.03103C147.159 0.683336 144.876 0 141.985 0C140.216 0 138.637 0.284723 137.248 0.873152C135.859 1.4426 134.756 2.29677 133.957 3.41668C133.158 4.53659 132.759 5.8653 132.759 7.42179C132.759 9.03523 133.139 10.3829 133.881 11.4079C134.623 12.4519 135.498 13.2112 136.525 13.7427C137.552 14.2552 138.846 14.7866 140.425 15.3371C141.909 15.8306 142.993 16.2862 143.678 16.7038C144.363 17.1214 144.705 17.6908 144.705 18.4501C144.705 19.0195 144.534 19.4561 144.191 19.7598C143.849 20.0635 143.373 20.2154 142.765 20.2154C142.08 20.2154 141.509 20.0066 141.034 19.589C140.558 19.1714 140.292 18.526 140.216 17.6529H132.816C132.987 20.2154 133.995 22.1895 135.878 23.5751C137.762 24.9608 140.14 25.6631 143.05 25.6631C144.952 25.6631 146.588 25.3404 147.958 24.676C149.327 24.0117 150.355 23.1195 151.078 21.9996C151.781 20.8797 152.143 19.608 152.143 18.2223C152.143 16.5709 151.762 15.2422 151.021 14.1982C150.241 13.0973 149.347 12.319 148.319 11.7686Z" fill="#544AE3"/>
<path d="M172.858 14.1413C172.098 13.0973 171.203 12.319 170.176 11.7686C169.13 11.2371 167.836 10.6676 166.258 10.1172C164.812 9.62365 163.766 9.1681 163.1 8.76948C162.434 8.37087 162.092 7.82041 162.092 7.11809C162.092 6.54864 162.244 6.13105 162.548 5.84632C162.853 5.5616 163.271 5.42873 163.823 5.42873C164.45 5.42873 164.964 5.61854 165.364 5.99817C165.744 6.37781 165.991 6.94725 166.086 7.7255H173.543C173.372 5.27688 172.44 3.37872 170.728 2.03103C169.016 0.683336 166.733 0 163.842 0C162.073 0 160.494 0.284723 159.105 0.873152C157.716 1.4426 156.613 2.29677 155.814 3.41668C155.015 4.53659 154.616 5.8653 154.616 7.42179C154.616 9.03523 154.996 10.3829 155.738 11.4079C156.48 12.4519 157.374 13.2112 158.382 13.7427C159.409 14.2552 160.703 14.7866 162.282 15.3371C163.766 15.8306 164.85 16.2862 165.535 16.7038C166.22 17.1214 166.562 17.6908 166.562 18.4501C166.562 19.0195 166.391 19.4561 166.048 19.7598C165.706 20.0635 165.23 20.2154 164.622 20.2154C163.937 20.2154 163.366 20.0066 162.891 19.589C162.415 19.1714 162.149 18.526 162.073 17.6529H154.673C154.844 20.2154 155.852 22.1895 157.735 23.5751C159.619 24.9608 161.997 25.6631 164.907 25.6631C166.809 25.6631 168.464 25.3404 169.815 24.676C171.184 24.0117 172.212 23.1195 172.935 21.9996C173.638 20.8797 174 19.608 174 18.2223C174 16.514 173.619 15.1663 172.858 14.1413Z" fill="#544AE3"/>
<path d="M3.40505 52.7119C4.48934 53.8697 5.8019 54.7809 7.30469 55.4262C8.80748 56.0716 10.4815 56.3943 12.2696 56.3943C13.2588 56.3943 14.3431 56.2614 15.5605 55.9767C16.778 55.7109 17.9954 55.1605 19.2129 54.3822C20.4303 53.604 21.5907 52.4461 22.675 50.9656L21.4956 49.9595C20.5064 51.3072 19.2699 52.3322 17.7671 53.0725C16.2644 53.8128 14.7425 54.1734 13.2207 54.1734C11.4897 54.1734 9.94884 53.6989 8.59823 52.7688C7.24762 51.8387 6.18236 50.529 5.40243 48.8396C4.64152 47.1503 4.24205 45.2141 4.24205 43.0313C4.24205 41.4178 4.4513 39.9562 4.86979 38.5896C5.28829 37.2419 5.87799 36.065 6.65792 35.059C7.41883 34.0719 8.33191 33.2937 9.39718 32.7432C10.4624 32.1928 11.6038 31.908 12.8593 31.908C14.8186 31.927 16.4165 32.5344 17.653 33.6923C18.8705 34.8502 19.6123 36.5206 19.8787 38.6655H21.5336V30.3516H19.308L19.4792 32.1548C18.3949 31.4525 17.2725 30.94 16.1122 30.6173C14.9518 30.2756 13.7534 30.1238 12.5359 30.1238C10.4434 30.1238 8.61725 30.5034 7.03837 31.2817C5.4595 32.0409 4.16596 33.0849 3.13873 34.3946C2.11151 35.7044 1.33158 37.1659 0.79895 38.7604C0.266317 40.3169 0 41.9683 0 43.6387C0 45.4419 0.285339 47.1123 0.875041 48.6498C1.46474 50.2063 2.30174 51.554 3.40505 52.7119Z" fill="#544AE3"/>
<path d="M27.1833 35.3057V50.2632C27.1833 51.1553 27.1263 51.8766 27.0311 52.446C26.936 53.0155 26.7078 53.4521 26.3654 53.7368C26.0229 54.0215 25.4523 54.1923 24.6533 54.2303V55.8058H33.5179V53.8317C33.1564 53.8507 32.7379 53.8697 32.2433 53.8886C31.7488 53.9076 31.2922 53.9266 30.8927 53.9835C30.9498 53.6798 30.9688 53.2622 30.9879 52.7497C31.0069 52.2372 31.0069 51.6488 31.0069 51.0034V36.2358C31.0069 35.3247 31.0639 34.5844 31.1591 34.0339C31.2542 33.4645 31.4824 33.0469 31.8439 32.7432C32.2053 32.4395 32.776 32.2876 33.5369 32.2497V30.6742H24.6723V32.6483C25.0528 32.6293 25.4903 32.5913 25.9659 32.5723C26.4414 32.5534 26.898 32.5154 27.2975 32.4964C27.2784 32.8571 27.2404 33.2747 27.2214 33.7682C27.2024 34.2617 27.1833 34.7742 27.1833 35.3057Z" fill="#544AE3"/>
<path d="M48.7549 51.0035L48.793 32.3256H51.38C52.5404 32.3066 53.4345 32.5154 54.1003 32.971C54.7661 33.4265 55.2416 34.1099 55.527 35.021C55.8123 35.9321 55.9645 37.071 56.0025 38.4377H57.6956L57.4863 30.6742H36.219L36.0098 38.4377H37.7028C37.7028 36.3687 38.0452 34.8501 38.711 33.8821C39.3768 32.895 40.4611 32.4015 41.9068 32.4015L44.9314 32.3636V50.2632C44.9314 51.1174 44.8743 51.8577 44.7792 52.4461C44.6841 53.0345 44.4748 53.4711 44.1324 53.7558C43.79 54.0405 43.2384 54.2114 42.4394 54.2493V55.8248H51.5893V53.8507C51.1518 53.8697 50.6762 53.8887 50.1246 53.9077C49.5919 53.9267 49.0783 53.9456 48.6218 54.0026C48.6788 53.6989 48.6979 53.2813 48.7169 52.7688C48.7549 52.2373 48.7549 51.6489 48.7549 51.0035Z" fill="#544AE3"/>
<path d="M66.4839 51.0035V36.2358C66.4839 35.3247 66.541 34.5844 66.6361 34.0339C66.7312 33.4645 66.9595 33.0469 67.3209 32.7432C67.6824 32.4395 68.253 32.2876 69.0139 32.2497V30.6742H60.1494V32.6483C60.5298 32.6293 60.9674 32.5913 61.4429 32.5724C61.9185 32.5534 62.375 32.5154 62.7745 32.4964C62.7555 32.8571 62.7175 33.2747 62.6984 33.7682C62.6794 34.2617 62.6604 34.7742 62.6604 35.2867V50.2442C62.6604 51.1363 62.6033 51.8576 62.5082 52.4271C62.4131 52.9965 62.1848 53.4331 61.8424 53.7178C61.5 54.0026 60.9293 54.1734 60.1304 54.2114V55.7868H68.9949V53.8128C68.6335 53.8317 68.215 53.8507 67.7204 53.8697C67.2258 53.8887 66.7693 53.9077 66.3698 53.9646C66.4269 53.6609 66.4459 53.2433 66.4649 52.7308C66.4649 52.2373 66.4839 51.6489 66.4839 51.0035Z" fill="#544AE3"/>
<path d="M88.7975 51.7627C88.36 52.56 87.7703 53.1104 87.0284 53.4331C86.2866 53.7558 85.4496 53.9266 84.4984 53.9456L78.2971 54.0216C78.3541 53.7178 78.3731 53.3003 78.3922 52.8257C78.4112 52.3322 78.4112 51.7627 78.4112 51.1174V43.6386L80.5037 43.5627C81.3977 43.5058 82.1396 43.5437 82.7293 43.6576C83.3381 43.7715 83.7756 44.0562 84.0799 44.4928C84.3843 44.9484 84.5365 45.6886 84.5365 46.7136H86.1154V38.7793H84.137L84.3463 41.8733H78.4112V36.2358C78.4112 35.2867 78.4683 34.5085 78.5824 33.958C78.6965 33.3886 78.9629 32.99 79.3433 32.7432C79.7238 32.4964 80.2944 32.3636 81.0363 32.3636L83.5663 32.2876C84.3843 32.2686 85.1452 32.3636 85.849 32.6103C86.5529 32.8571 87.1426 33.3316 87.5801 34.0529C88.0176 34.7742 88.2459 35.8182 88.2459 37.1849H89.8248L89.6536 30.6742H72.0957V32.6483C72.4761 32.6293 72.9137 32.5913 73.3892 32.5724C73.8648 32.5534 74.3213 32.5154 74.7208 32.4964C74.7018 32.8571 74.6637 33.2747 74.6447 33.7682C74.6257 34.2617 74.6067 34.7742 74.6067 35.2867V50.2442C74.6067 51.1363 74.5496 51.8576 74.4545 52.4271C74.3594 52.9965 74.1311 53.4331 73.7887 53.7178C73.4463 54.0026 72.8756 54.1734 72.0767 54.2114V55.7868H90.7949L91.0042 48.4979H89.4253C89.4443 49.9025 89.2351 50.9655 88.7975 51.7627Z" fill="#544AE3"/>
<path d="M96.825 41.8164C97.5669 42.4428 98.4039 42.9932 99.336 43.4678C100.268 43.9423 101.219 44.3979 102.189 44.8345C103.179 45.271 104.111 45.7266 105.024 46.2011C105.918 46.6757 106.66 47.2641 107.249 47.9285C107.839 48.5928 108.124 49.428 108.124 50.4151C108.124 51.2502 107.915 51.9905 107.478 52.5979C107.04 53.2243 106.45 53.6989 105.709 54.0405C104.967 54.3822 104.13 54.5341 103.217 54.5341C101.39 54.5341 99.8306 54.0026 98.518 52.9396C97.2055 51.8766 96.4636 50.3012 96.2734 48.2132H94.5423L94.6945 56.1285H96.8821L96.7109 54.61C97.643 55.1794 98.6892 55.635 99.8306 55.9387C100.972 56.2424 102.056 56.4132 103.083 56.4132C104.91 56.4132 106.469 56.1095 107.744 55.5211C109.038 54.9137 110.027 54.0975 110.712 53.0345C111.415 51.9715 111.758 50.7757 111.758 49.447C111.758 48.2891 111.53 47.3021 111.073 46.4479C110.616 45.5937 110.008 44.8724 109.247 44.265C108.486 43.6576 107.63 43.1071 106.698 42.6326C105.766 42.1581 104.834 41.7215 103.92 41.3418C102.798 40.8483 101.771 40.3358 100.877 39.8233C99.9828 39.3298 99.2599 38.7603 98.7273 38.115C98.1946 37.4886 97.9283 36.6914 97.9283 35.7613C97.9283 34.6983 98.3278 33.8061 99.1077 33.0659C99.9067 32.3256 100.972 31.9459 102.304 31.9459C103.616 31.927 104.719 32.2117 105.613 32.7811C106.508 33.3696 107.192 34.1478 107.706 35.1349C108.201 36.1219 108.524 37.2228 108.638 38.4377H110.293V30.3895H108.124L108.277 31.889C107.345 31.2247 106.298 30.7501 105.157 30.4844C104.016 30.2186 102.988 30.0858 102.075 30.0858C100.553 30.0858 99.317 30.2945 98.3088 30.7121C97.3196 31.1297 96.5207 31.6802 95.95 32.3446C95.3793 33.0089 94.9608 33.7302 94.7325 34.4705C94.4852 35.2108 94.3711 35.9131 94.3711 36.5964C94.3711 37.7543 94.5803 38.7414 95.0179 39.5955C95.4934 40.4497 96.0831 41.19 96.825 41.8164Z" fill="#544AE3"/>
</svg>